<svg xmlns="http://www.w3.org/2000/svg" xmlns:xlink="http://www.w3.org/1999/xlink" version="1.1" width="1000" height="1000" viewBox="0 0 1000 1000" xml:space="preserve">
<desc>Created with Fabric.js 3.5.0</desc>
<defs>
</defs>
<rect x="0" y="0" width="100%" height="100%" fill="#ffffff"/>
<g transform="matrix(3.7879 0 0 3.8265 500.0025 499.2491)" id="204525">
<g style="" vector-effect="non-scaling-stroke">
		<g transform="matrix(1 0 0 1 -97.5906 0.2156)">
<path style="stroke: none; stroke-width: 1; stroke-dasharray: none; stroke-linecap: butt; stroke-dashoffset: 0; stroke-linejoin: miter; stroke-miterlimit: 4; is-custom-font: none; font-file-url: none; fill: rgb(255,82,193); fill-rule: nonzero; opacity: 1;" transform=" translate(-22.4094, -19.7156)" d="M 27.967 0.879 C 20.242 0.875 12.182 2.615 4.047 4.872 c -1.033 0.208 -2.041 0.884 -2.574 1.72 C 0.983 7.38 0.805 8.171 0.652 9 c -0.79 4.428 -0.694 8.776 -0.53 13.594 c 0.036 1.103 0.2 2.41 0.715 3.205 c 0.538 0.803 1.46 1.313 2.561 1.48 a 95.99 95.99 0 0 0 4.232 0.525 l -0.312 8.698 c -0.048 0.692 0.29 1.267 0.71 1.598 c 0.376 0.286 0.795 0.413 1.225 0.445 c 0.86 0.065 1.869 -0.303 2.37 -1.257 c 2.195 -4.224 3.572 -6.089 6.317 -8.895 c 7.158 0.176 13.407 -0.222 20.482 -0.745 c 2.501 -0.065 4.218 -2.11 4.672 -3.743 c 1.357 -4.232 1.568 -9.456 1.712 -14.737 c 0.061 -2.093 -0.665 -4.148 -1.95 -5.234 c -1.222 -0.991 -2.702 -1.35 -4.058 -1.718 C 35.031 1.363 31.263 0.905 27.967 0.879 z m 10.29 3.31 c 1.358 0.369 2.555 0.724 3.31 1.337 c 1.26 1.339 1.218 2.23 1.2 3.675 c -0.142 5.122 -0.388 10.093 -1.544 13.86 c -0.498 1.405 -1.366 2.405 -3.006 2.556 c -7.208 0.533 -13.462 0.945 -20.707 0.739 a 1.032 1.032 0 0 0 -0.763 0.302 c -3.044 3.074 -4.601 5.21 -6.921 9.676 c -0.054 0.102 -0.171 0.164 -0.315 0.175 c -0.097 -0.005 -0.136 -0.08 -0.142 -0.148 l 0.314 -9.432 c 0.019 -0.509 -0.401 -0.995 -0.907 -1.05 a 95.48 95.48 0 0 1 -5.06 -0.62 c -0.726 -0.111 -0.994 -0.31 -1.193 -0.606 c -0.346 -0.825 -0.338 -1.335 -0.365 -2.128 c -0.162 -4.775 -0.242 -8.948 0.491 -13.1 c 0.068 -0.614 0.298 -1.242 0.542 -1.767 c 0.404 -0.632 1.023 -0.725 1.644 -0.897 c 7.956 -2.197 15.74 -3.84 23.068 -3.845 c 3.592 0.13 7.364 0.49 10.354 1.273 z m -27.479 8.09 c -1.096 1.313 -0.987 3.096 -0.14 4.29 c 0.442 0.625 1.132 1.128 1.972 1.242 c 1.091 0.09 1.783 -0.352 2.53 -0.86 c 1.353 -1.176 1.49 -3.228 0.461 -4.71 c -0.524 -0.755 -1.362 -1.208 -2.218 -1.24 c -1.172 0.012 -1.968 0.535 -2.605 1.277 z m 11.856 -1.072 c -1.092 0.035 -1.975 0.791 -2.514 1.607 c -0.617 0.933 -0.977 2.101 -0.478 3.246 c 0.96 2.203 4.277 2.176 5.6 -0.063 c 0.61 -1.032 0.454 -2.205 0 -3.056 c -0.452 -0.85 -1.136 -1.543 -2.131 -1.702 a 2.494 2.494 0 0 0 -0.477 -0.032 z m 9.625 0.207 c -0.34 -0.008 -0.69 0.024 -1.018 0.111 c -1.312 0.35 -2.429 1.704 -2.26 3.437 c 0.086 0.872 0.487 1.722 1.21 2.308 c 0.723 0.585 1.773 0.847 2.88 0.62 c 1.272 -0.26 2.06 -1.285 2.323 -2.275 c 0.263 -0.99 0.197 -1.999 -0.414 -2.817 a 3.47 3.47 0 0 0 -2.72 -1.384 z m -18.965 1.623 c 0.245 0.002 0.438 0.08 0.637 0.366 c 0.445 0.642 0.321 1.615 -0.128 2.005 c -0.447 0.39 -0.726 0.424 -0.922 0.398 c -0.196 -0.027 -0.395 -0.162 -0.573 -0.414 c -0.34 -0.48 -0.44 -1.256 0.007 -1.81 c 0.238 -0.316 0.675 -0.513 0.98 -0.545 z m 9.483 0.223 c 0.038 0.006 0.464 0.253 0.668 0.636 c 0.204 0.383 0.242 0.739 0.048 1.066 c -0.577 0.976 -1.804 0.712 -1.99 0.287 c -0.07 -0.162 -0.017 -0.813 0.32 -1.32 c 0.335 -0.509 0.757 -0.7 0.954 -0.67 z m 10.564 0.748 c 0.062 0.083 0.213 0.64 0.096 1.082 c -0.118 0.442 -0.31 0.715 -0.78 0.811 c -0.602 0.124 -0.94 0 -1.193 -0.207 c -0.254 -0.205 -0.425 -0.552 -0.462 -0.923 c -0.09 -0.92 0.24 -1.133 0.764 -1.273 c 0.61 -0.15 1.3 0.112 1.575 0.51 z" stroke-linecap="round"/>
</g>
		<g transform="matrix(1 0 0 1 28.603 -0.0604)">
<path style="stroke: none; stroke-width: 1; stroke-dasharray: none; stroke-linecap: butt; stroke-dashoffset: 0; stroke-linejoin: miter; stroke-miterlimit: 4; is-custom-font: none; font-file-url: none; fill: rgb(0,37,46); fill-rule: nonzero; opacity: 1;" transform=" translate(-148.603, -19.4396)" d="M 57.61 4.996 c 0.016 -0.26 0.111 -0.494 0.287 -0.701 a 0.875 0.875 0 0 1 0.701 -0.31 h 6.826 c 0.23 0 0.467 0.096 0.712 0.287 a 0.883 0.883 0 0 1 0.368 0.724 v 10.893 h 11.421 V 4.996 c 0 -0.276 0.096 -0.513 0.287 -0.712 c 0.192 -0.2 0.44 -0.3 0.747 -0.3 h 6.734 c 0.306 0 0.574 0.077 0.804 0.23 c 0.23 0.154 0.345 0.399 0.345 0.736 V 37.1 c 0 0.337 -0.1 0.59 -0.3 0.758 c -0.198 0.169 -0.459 0.253 -0.78 0.253 h -6.803 c -0.306 0 -0.555 -0.084 -0.747 -0.253 c -0.191 -0.168 -0.287 -0.42 -0.287 -0.758 V 24.047 H 66.504 V 37.1 c 0 0.322 -0.104 0.57 -0.31 0.747 c -0.207 0.176 -0.487 0.264 -0.84 0.264 h -6.756 c -0.643 0 -0.972 -0.299 -0.988 -0.896 V 4.996 z m 62.875 32.725 c -0.199 0.168 -0.41 0.275 -0.632 0.321 a 3.123 3.123 0 0 1 -0.631 0.07 h -3.47 c -0.276 0 -0.514 -0.05 -0.713 -0.15 c -0.2 -0.1 -0.368 -0.234 -0.506 -0.402 a 2.384 2.384 0 0 1 -0.344 -0.575 a 4.884 4.884 0 0 1 -0.23 -0.666 l -0.712 -2.942 c -0.23 0.475 -0.563 1.015 -1 1.62 a 8.495 8.495 0 0 1 -1.666 1.7 c -0.674 0.53 -1.479 0.974 -2.413 1.334 c -0.935 0.36 -2.007 0.54 -3.218 0.54 c -1.746 0 -3.332 -0.337 -4.757 -1.011 a 10.904 10.904 0 0 1 -3.642 -2.758 c -1.003 -1.164 -1.781 -2.524 -2.332 -4.08 c -0.552 -1.554 -0.828 -3.213 -0.828 -4.974 V 10.695 c 0 -0.582 0.127 -1.022 0.38 -1.321 c 0.252 -0.299 0.654 -0.448 1.206 -0.448 h 5.308 c 0.66 0 1.111 0.11 1.356 0.333 c 0.245 0.222 0.368 0.655 0.368 1.298 v 14.96 c 0 0.66 0.15 1.284 0.448 1.874 c 0.299 0.59 0.693 1.11 1.184 1.562 c 0.49 0.452 1.045 0.809 1.666 1.069 c 0.62 0.26 1.252 0.39 1.896 0.39 c 0.551 0 1.122 -0.13 1.712 -0.39 a 6.361 6.361 0 0 0 1.631 -1.046 c 0.498 -0.436 0.908 -0.95 1.23 -1.54 c 0.322 -0.59 0.482 -1.214 0.482 -1.872 V 10.626 c 0 -0.26 0.05 -0.52 0.15 -0.781 c 0.1 -0.26 0.249 -0.46 0.448 -0.598 c 0.199 -0.122 0.387 -0.206 0.563 -0.252 c 0.176 -0.046 0.38 -0.07 0.609 -0.07 h 5.194 c 0.658 0 1.133 0.162 1.424 0.483 c 0.291 0.322 0.437 0.751 0.437 1.287 v 25.716 c 0 0.29 -0.065 0.559 -0.195 0.804 s -0.31 0.437 -0.54 0.574 l 0.137 -0.068 z m 26.681 -3.172 c -0.414 0.414 -0.87 0.858 -1.367 1.333 c -0.498 0.475 -1.046 0.92 -1.643 1.333 a 9.3 9.3 0 0 1 -1.93 1.023 a 6.097 6.097 0 0 1 -2.23 0.402 c -2.083 0 -4.002 -0.39 -5.757 -1.172 a 13.777 13.777 0 0 1 -4.527 -3.206 c -1.264 -1.356 -2.252 -2.953 -2.964 -4.792 c -0.713 -1.838 -1.069 -3.814 -1.069 -5.929 c 0 -2.13 0.356 -4.11 1.069 -5.94 c 0.712 -1.83 1.7 -3.424 2.964 -4.78 a 13.635 13.635 0 0 1 4.527 -3.194 c 1.755 -0.774 3.674 -1.161 5.757 -1.161 c 0.843 0 1.613 0.123 2.31 0.368 a 8.51 8.51 0 0 1 1.907 0.942 c 0.575 0.383 1.103 0.816 1.586 1.298 c 0.482 0.483 0.938 0.954 1.367 1.414 V 1.985 c 0 -0.49 0.15 -0.903 0.448 -1.24 c 0.299 -0.338 0.747 -0.506 1.345 -0.506 h 5.17 c 0.2 0 0.41 0.042 0.632 0.126 c 0.222 0.085 0.425 0.203 0.61 0.357 c 0.183 0.153 0.332 0.337 0.447 0.551 c 0.115 0.215 0.173 0.452 0.173 0.712 v 34.357 c 0 1.18 -0.62 1.77 -1.862 1.77 h -4.504 c -0.306 0 -0.544 -0.04 -0.712 -0.116 a 1.13 1.13 0 0 1 -0.426 -0.333 a 2.319 2.319 0 0 1 -0.31 -0.551 a 17.13 17.13 0 0 0 -0.344 -0.77 l -0.667 -1.793 z m -13.214 -11.008 a 8.39 8.39 0 0 0 0.471 2.839 c 0.314 0.88 0.762 1.643 1.345 2.286 a 6.384 6.384 0 0 0 2.102 1.528 c 0.82 0.376 1.728 0.563 2.724 0.563 c 0.98 0 1.903 -0.176 2.769 -0.528 a 7.058 7.058 0 0 0 2.263 -1.46 a 7.256 7.256 0 0 0 1.552 -2.194 c 0.39 -0.843 0.609 -1.747 0.655 -2.712 v -0.322 a 7.26 7.26 0 0 0 -0.552 -2.803 a 7.427 7.427 0 0 0 -1.528 -2.344 a 7.242 7.242 0 0 0 -2.298 -1.597 a 6.977 6.977 0 0 0 -2.861 -0.586 c -0.996 0 -1.904 0.195 -2.724 0.586 c -0.82 0.39 -1.52 0.923 -2.102 1.597 a 7.236 7.236 0 0 0 -1.345 2.344 a 8.35 8.35 0 0 0 -0.47 2.803 z m 48.72 11.008 c -0.414 0.414 -0.87 0.858 -1.368 1.333 c -0.498 0.475 -1.046 0.92 -1.643 1.333 a 9.3 9.3 0 0 1 -1.93 1.023 a 6.097 6.097 0 0 1 -2.23 0.402 c -2.083 0 -4.002 -0.39 -5.756 -1.172 a 13.777 13.777 0 0 1 -4.528 -3.206 c -1.263 -1.356 -2.252 -2.953 -2.964 -4.792 c -0.712 -1.838 -1.069 -3.814 -1.069 -5.929 c 0 -2.13 0.357 -4.11 1.069 -5.94 s 1.7 -3.424 2.964 -4.78 a 13.635 13.635 0 0 1 4.528 -3.194 c 1.754 -0.774 3.673 -1.161 5.756 -1.161 c 0.843 0 1.613 0.123 2.31 0.368 a 8.51 8.51 0 0 1 1.907 0.942 c 0.575 0.383 1.103 0.816 1.586 1.298 c 0.483 0.483 0.938 0.954 1.367 1.414 V 1.985 c 0 -0.49 0.15 -0.903 0.448 -1.24 c 0.3 -0.338 0.747 -0.506 1.345 -0.506 h 5.17 c 0.2 0 0.41 0.042 0.632 0.126 c 0.223 0.085 0.426 0.203 0.61 0.357 c 0.183 0.153 0.333 0.337 0.448 0.551 c 0.114 0.215 0.172 0.452 0.172 0.712 v 34.357 c 0 1.18 -0.62 1.77 -1.862 1.77 h -4.504 c -0.306 0 -0.544 -0.04 -0.712 -0.116 a 1.13 1.13 0 0 1 -0.425 -0.333 a 2.319 2.319 0 0 1 -0.31 -0.551 a 17.13 17.13 0 0 0 -0.345 -0.77 l -0.667 -1.793 z m -13.215 -11.008 a 8.39 8.39 0 0 0 0.471 2.839 c 0.315 0.88 0.763 1.643 1.345 2.286 a 6.384 6.384 0 0 0 2.103 1.528 c 0.82 0.376 1.727 0.563 2.723 0.563 c 0.98 0 1.903 -0.176 2.769 -0.528 a 7.058 7.058 0 0 0 2.264 -1.46 a 7.256 7.256 0 0 0 1.55 -2.194 c 0.391 -0.843 0.61 -1.747 0.656 -2.712 v -0.322 a 7.26 7.26 0 0 0 -0.552 -2.803 a 7.427 7.427 0 0 0 -1.528 -2.344 a 7.242 7.242 0 0 0 -2.298 -1.597 a 6.977 6.977 0 0 0 -2.861 -0.586 c -0.996 0 -1.904 0.195 -2.723 0.586 c -0.82 0.39 -1.521 0.923 -2.103 1.597 a 7.236 7.236 0 0 0 -1.345 2.344 a 8.35 8.35 0 0 0 -0.47 2.803 z M 197.61 2.008 c 0 -0.49 0.122 -0.903 0.367 -1.24 c 0.246 -0.338 0.667 -0.506 1.264 -0.506 h 5.63 c 0.154 0 0.315 0.042 0.483 0.126 a 1.7 1.7 0 0 1 0.471 0.357 c 0.146 0.153 0.268 0.337 0.368 0.551 c 0.1 0.215 0.15 0.452 0.15 0.712 v 34.334 c 0 0.582 -0.165 1.022 -0.495 1.321 c -0.329 0.299 -0.754 0.448 -1.275 0.448 h -5.332 c -0.597 0 -1.018 -0.15 -1.264 -0.448 c -0.245 -0.299 -0.367 -0.74 -0.367 -1.321 V 2.008 z m 38.7 32.61 a 15.31 15.31 0 0 1 -4.55 2.907 a 13.87 13.87 0 0 1 -5.355 1.046 c -2.1 0 -4.083 -0.383 -5.952 -1.15 a 15.494 15.494 0 0 1 -4.918 -3.182 a 15.273 15.273 0 0 1 -3.355 -4.792 c -0.828 -1.838 -1.241 -3.837 -1.241 -5.998 c 0 -1.348 0.164 -2.654 0.494 -3.918 a 15.45 15.45 0 0 1 1.402 -3.55 a 15.055 15.055 0 0 1 2.206 -3.045 a 13.957 13.957 0 0 1 2.907 -2.379 a 14.327 14.327 0 0 1 3.493 -1.54 a 14.084 14.084 0 0 1 3.975 -0.551 c 1.272 0 2.505 0.169 3.7 0.506 c 1.195 0.337 2.318 0.812 3.367 1.424 c 1.05 0.613 2.01 1.349 2.884 2.207 a 14.896 14.896 0 0 1 2.252 2.815 a 13.58 13.58 0 0 1 1.46 3.263 c 0.344 1.157 0.517 2.348 0.517 3.573 c 0 0.797 -0.012 1.448 -0.035 1.954 c -0.023 0.505 -0.142 0.908 -0.356 1.206 c -0.215 0.3 -0.57 0.506 -1.069 0.62 c -0.498 0.116 -1.23 0.173 -2.194 0.173 h -16.546 c 0.153 0.98 0.463 1.8 0.93 2.46 a 5.842 5.842 0 0 0 1.62 1.573 c 0.613 0.391 1.264 0.67 1.954 0.84 a 8.24 8.24 0 0 0 1.953 0.252 c 0.552 0 1.118 -0.058 1.7 -0.172 a 12.179 12.179 0 0 0 1.69 -0.46 a 9.557 9.557 0 0 0 1.493 -0.667 c 0.452 -0.252 0.816 -0.517 1.092 -0.792 c 0.245 -0.2 0.456 -0.349 0.632 -0.449 c 0.176 -0.1 0.364 -0.149 0.563 -0.149 c 0.2 0 0.402 0.07 0.61 0.207 a 4.8 4.8 0 0 1 0.7 0.597 l 2.436 2.758 c 0.168 0.2 0.276 0.38 0.322 0.54 c 0.046 0.161 0.069 0.326 0.069 0.494 c 0 0.307 -0.085 0.571 -0.253 0.793 a 2.89 2.89 0 0 1 -0.598 0.586 z m -11.054 -19.143 c -0.598 0 -1.176 0.119 -1.735 0.356 a 6.547 6.547 0 0 0 -1.575 0.954 c -0.49 0.398 -0.93 0.85 -1.321 1.356 a 8.315 8.315 0 0 0 -0.954 1.54 h 11.743 a 13.536 13.536 0 0 0 -1.045 -1.655 a 7.081 7.081 0 0 0 -1.287 -1.333 a 5.558 5.558 0 0 0 -1.655 -0.896 c -0.62 -0.215 -1.344 -0.322 -2.171 -0.322 z" stroke-linecap="round"/>
</g>
</g>
</g>
</svg>